<svg width="137" height="40" viewBox="0 0 137 40" xmlns="http://www.w3.org/2000/svg" xmlns:xlink="http://www.w3.org/1999/xlink">
    <defs>
        <path id="padfoyt38a" d="M0 0h38v38H0z"/>
    </defs>
    <g fill="none" fill-rule="evenodd">
        <g fill="#BBBDBF">
            <path d="M62.074 14.183c1.7 0 2.987 1.728 2.987 3.857 0 2.136-1.288 3.863-2.987 3.863-1.693 0-2.984-1.727-2.984-3.863 0-2.129 1.29-3.857 2.984-3.857m-.105 8.793c3.539 0 5.651-2.213 5.651-4.936s-2.112-4.929-5.651-4.929c-3.535 0-5.652 2.206-5.652 4.929 0 2.723 2.117 4.936 5.652 4.936M71.955 22.493h2.783V14.57h3.12v-1.083H68.26v1.083h3.695zM82.11 22.493h2.842V14.57h3.782v-1.083h-9.81v1.083h3.185zM49.066 22.493h6.825v-1.08h-4.686a.535.535 0 0 1-.533-.537v-7.39H48v7.93c0 .595.477 1.077 1.066 1.077M93.424 14.549h5.12v-1.063h-7.26c-.581 0-1.057.479-1.057 1.07v6.861c0 .594.476 1.076 1.056 1.076h7.261V21.43h-5.12a.535.535 0 0 1-.532-.538v-2.653h5.573v-1.053h-5.573v-2.102c0-.296.236-.535.532-.535"/>
            <g>
                <path d="M111.935 22.667c-2.581 0-4.672-2.104-4.672-4.698 0-2.596 2.09-4.698 4.672-4.698s4.673 2.102 4.673 4.698c0 2.594-2.091 4.698-4.673 4.698m0-13.667c-4.926 0-8.92 4.016-8.92 8.97 0 4.952 3.994 8.968 8.92 8.968 4.927 0 8.92-4.016 8.92-8.969 0-4.953-3.993-8.969-8.92-8.969"/>
                <path d="m130.337 18.399-5.83-7.904h-3.664v3.026a9.895 9.895 0 0 1 0 9.057v2.865h3.885v-8.199l6.053 8.2h3.441v-14.95h-3.885V18.4z"/>
            </g>
        </g>
        <g transform="translate(1 1)">
            <mask id="jylnqtjktb" fill="#fff">
                <use xlink:href="#padfoyt38a"/>
            </mask>
            <path d="M28.459 25.768c-1.61 2.563-3.744 4.366-5.698 4.818a5.914 5.914 0 0 1-1.095.11c-1.259 0-2.147-.481-2.776-.9-.627-.412-1.213-.966-1.74-1.643-3.36-4.316-3.592-12.407-3.608-13.318-.037-2.153.277-5.069 1.957-6.74.823-.81 1.847-1.223 3.056-1.223h.194c1.212 0 2.246.412 3.061 1.222 1.688 1.672 1.996 4.588 1.957 6.74-.04 2.247-.452 6.592-2.772 10.49-.196.313-.538.51-.906.51a1.055 1.055 0 0 1-.91-1.591c1.628-2.728 2.417-5.727 2.477-9.442.042-2.467-.43-4.314-1.33-5.207-.415-.418-.935-.62-1.577-.62h-.186c-.643 0-1.157.202-1.58.62-.896.893-1.375 2.743-1.328 5.207.045 3.035.774 8.987 3.161 12.057.382.493.8.893 1.23 1.178.422.28.894.551 1.631.551.199 0 .413-.023.637-.06 1.372-.33 3.083-1.852 4.358-3.882a1.058 1.058 0 0 1 1.925.326c.058.277.016.557-.138.797m-14.12 4.91h-.055a1.174 1.174 0 0 1-.862-1.97 1.172 1.172 0 0 1 2.038.747 1.173 1.173 0 0 1-1.121 1.222m20.434-19.5-7.95-7.95c-4.297-4.303-11.343-4.303-15.643 0l-7.95 7.95c-4.307 4.303-4.307 11.344 0 15.644l7.95 7.95c4.3 4.305 11.346 4.305 15.643 0l7.95-7.95c4.303-4.3 4.303-11.341 0-15.644" fill="#BBBDBF" mask="url(#jylnqtjktb)"/>
        </g>
    </g>
</svg>
