<svg width="44" height="44" viewBox="0 0 44 44" fill="none" xmlns="http://www.w3.org/2000/svg">
    <circle cx="22" cy="22" r="22" fill="#fff"/>
    <circle cx="22" cy="22" r="21.5" stroke="#000" stroke-opacity=".12"/>
    <path fill-rule="evenodd" clip-rule="evenodd" d="M30.64 22.205c0-.639-.057-1.252-.164-1.841H22v3.481h4.844a4.14 4.14 0 0 1-1.796 2.716v2.259h2.908c1.702-1.567 2.684-3.875 2.684-6.615z" fill="#4285F4"/>
    <path fill-rule="evenodd" clip-rule="evenodd" d="M22 31c2.43 0 4.467-.806 5.956-2.18l-2.909-2.259c-.805.54-1.836.86-3.047.86-2.344 0-4.328-1.584-5.036-3.711h-3.007v2.332A8.997 8.997 0 0 0 22 31z" fill="#34A853"/>
    <path fill-rule="evenodd" clip-rule="evenodd" d="M16.964 23.71a5.41 5.41 0 0 1-.282-1.71c0-.593.102-1.17.282-1.71v-2.332h-3.007A8.996 8.996 0 0 0 13 22c0 1.452.348 2.827.957 4.042l3.007-2.332z" fill="#FBBC05"/>
    <path fill-rule="evenodd" clip-rule="evenodd" d="M22 16.58c1.321 0 2.508.454 3.44 1.346l2.582-2.582C26.462 13.892 24.426 13 22 13a8.997 8.997 0 0 0-8.043 4.958l3.007 2.332c.708-2.127 2.692-3.71 5.036-3.71z" fill="#EA4335"/>
</svg>
