<?xml version="1.0" encoding="UTF-8"?>
<svg width="100px" height="100px" viewBox="0 0 100 100" version="1.1" xmlns="http://www.w3.org/2000/svg" xmlns:xlink="http://www.w3.org/1999/xlink">
    <title>01_likte_mo</title>
    <g id="Page-1" stroke="none" stroke-width="1" fill="none" fill-rule="evenodd">
        <g id="Artboard" transform="translate(-101.000000, -231.000000)">
            <g id="01_likte_mo" transform="translate(101.000000, 231.000000)">
                <rect id="Rectangle-Copy" opacity="0.433508737" x="0" y="0" width="100" height="100"></rect>
                <path d="M31.0189608,15.6504065 C18.198997,15.6504065 10.1626016,28.7569875 10.1626016,36.60204 C10.1626016,44.4470928 15.8068155,50.2834433 15.8068155,50.2834433 C15.8068155,50.2834433 49.8658245,84.3416586 49.8658245,84.3416586 C49.8658245,84.3416586 84.116176,50.7614032 84.116176,50.7614032 C84.116176,50.7614032 89.7603902,46.36052 89.7603902,36.4106974 C89.7603902,26.4608747 80.3845957,15.7456808 68.8087563,15.7456808 C57.2321233,15.7456808 49.7697561,25.7915718 49.7697561,25.7915718 C49.7697561,25.7915718 43.838925,15.6504065 31.0189608,15.6504065 Z" id="Path" stroke="#000000" stroke-width="5.7402439" stroke-linecap="round" stroke-linejoin="round"></path>
            </g>
        </g>
    </g>
</svg>