<svg xmlns="http://www.w3.org/2000/svg" width="36" height="36" viewBox="0 0 36 36">
    <g fill="none" fill-rule="evenodd">
        <path d="M0 0h36v36H0z"/>
        <path stroke="#333" stroke-width="2" d="M16.9 27.433a2 2 0 0 0 2.798 0l8.713-8.524c2.515-2.597 2.515-6.766.005-9.358a6.377 6.377 0 0 0-4.549-1.917 6.37 6.37 0 0 0-4.539 1.908L18.3 10.618l-.723-.756-.297-.31a6.377 6.377 0 0 0-4.548-1.918c-1.706 0-3.343.69-4.545 1.913-2.519 2.595-2.519 6.766-.018 9.343l8.732 8.543z"/>
    </g>
</svg>
