<svg xmlns="http://www.w3.org/2000/svg" width="36" height="36" viewBox="0 0 36 36">
    <g fill="none" fill-rule="evenodd">
        <path d="M0 0h36v36H0z"/>
        <path stroke="#333" stroke-width="2" d="M22.533 30.86v-4.935l.75-.193a10.166 10.166 0 0 0 7.621-9.842c0-5.612-4.55-10.161-10.162-10.161h-5.58C9.55 5.729 5 10.278 5 15.89c0 5.612 4.55 10.162 10.161 10.162h2.184l5.188 4.807z"/>
        <path fill="#333" d="M13.395 14.583a1.395 1.395 0 1 1 0 2.79 1.395 1.395 0 0 1 0-2.79zm4.883 0a1.395 1.395 0 1 1 0 2.79 1.395 1.395 0 0 1 0-2.79zm4.884 0a1.395 1.395 0 1 1 0 2.79 1.395 1.395 0 0 1 0-2.79z"/>
    </g>
</svg>
