<svg width="24" height="22" viewBox="0 0 24 22" xmlns="http://www.w3.org/2000/svg">
    <g transform="translate(6 4)" fill="none" fill-rule="evenodd">
        <path d="M1.734 6.944v-3.04c0-.896.16-1.565.463-2.13a3.15 3.15 0 0 1 1.31-1.31C4.073.16 4.741 0 5.637 0h.284c.895 0 1.564.16 2.13.463a3.15 3.15 0 0 1 1.31 1.31c.302.566.463 1.235.463 2.13v2.925" stroke="#666" stroke-width="1.2" stroke-linecap="round" stroke-linejoin="round"/>
        <path d="M2.564 5.828h6.43c.891 0 1.215.092 1.54.267.327.174.582.43.757.756.174.326.267.649.267 1.54v2.963c0 .892-.093 1.215-.267 1.54-.175.327-.43.583-.756.757-.326.174-.65.267-1.541.267h-6.43c-.892 0-1.215-.093-1.54-.267a1.817 1.817 0 0 1-.757-.756c-.174-.326-.267-.65-.267-1.54V8.391C0 7.5.093 7.177.267 6.85c.174-.326.43-.582.756-.756.326-.175.65-.267 1.54-.267z" stroke="#666" stroke-width="1.2" fill="#D2D2D2" stroke-linejoin="round"/>
        <rect fill="#666" x="5.324" y="8.717" width="1.065" height="2.889" rx=".532"/>
    </g>
</svg>