<svg xmlns="http://www.w3.org/2000/svg" width="60" height="60" viewBox="0 0 60 60">
    <g fill="none" fill-rule="evenodd">
        <path fill="#FFF" stroke="#CCC" stroke-width="2" d="M17.692 7c-2.288 0-3.204.177-4.15.683a4.452 4.452 0 0 0-1.859 1.858c-.506.947-.683 1.863-.683 4.15v33.506c0 2.288.177 3.204.683 4.15a4.452 4.452 0 0 0 1.858 1.859c.947.506 1.863.683 4.15.683h24.617c2.288 0 3.204-.177 4.15-.683a4.452 4.452 0 0 0 1.859-1.858c.506-.947.683-1.863.683-4.15V13.691c0-2.288-.177-3.204-.683-4.15a4.452 4.452 0 0 0-1.858-1.859C45.512 7.177 44.596 7 42.309 7H17.691z"/>
        <path fill="#CCC" d="M30.111 29.333a1 1 0 1 1 0 2H18.778a1 1 0 1 1 0-2H30.11zm11.111-6.666a1 1 0 1 1 0 2H18.778a1 1 0 1 1 0-2h22.444zm0-6.667a1 1 0 1 1 0 2H18.778a1 1 0 1 1 0-2h22.444z"/>
    </g>
</svg>
