<svg xmlns="http://www.w3.org/2000/svg" width="122" height="35" viewBox="0 0 122 35">
    <g fill="#E60012" fill-rule="evenodd">
        <path d="M19.914 12.224c2.405 0 4.227 2.408 4.227 5.375 0 2.976-1.822 5.384-4.227 5.384-2.396 0-4.222-2.408-4.222-5.384 0-2.967 1.826-5.375 4.222-5.375m-.149 12.254c5.008 0 7.997-3.084 7.997-6.88 0-3.793-2.99-6.868-7.997-6.868-5.002 0-7.996 3.075-7.996 6.869 0 3.795 2.994 6.879 7.996 6.879M33.896 23.805h3.938V12.761h4.412v-1.508H28.667v1.508h5.229zM48.263 23.805h4.022V12.761h5.351v-1.508h-13.88v1.508h4.507zM1.508 23.805h9.657V22.3h-6.63a.752.752 0 0 1-.754-.749V11.253H0v11.052c0 .829.675 1.5 1.508 1.5M64.272 12.733h7.245v-1.48H61.244c-.822 0-1.495.666-1.495 1.49v9.563a1.5 1.5 0 0 0 1.495 1.5h10.273v-1.482h-7.245a.75.75 0 0 1-.752-.75v-3.698h7.886v-1.467H63.52v-2.93c0-.412.334-.746.752-.746"/>
        <g>
            <path d="M90.465 24.048c-3.652 0-6.61-2.933-6.61-6.548 0-3.618 2.958-6.548 6.61-6.548 3.653 0 6.611 2.93 6.611 6.548 0 3.615-2.958 6.548-6.61 6.548m0-19.048c-6.971 0-12.621 5.596-12.621 12.5 0 6.903 5.65 12.5 12.62 12.5 6.97 0 12.621-5.597 12.621-12.5 0-6.904-5.65-12.5-12.62-12.5"/>
            <path d="M116.503 18.099l-8.25-11.016h-5.184v4.218a13.624 13.624 0 0 1 1.551 6.309c0 2.278-.566 4.418-1.551 6.314v3.993h5.497V16.49l8.565 11.427H122V7.083h-5.497V18.1z"/>
        </g>
    </g>
</svg>
